<svg xmlns="http://www.w3.org/2000/svg" xmlns:xlink="http://www.w3.org/1999/xlink" width="1080" zoomAndPan="magnify" viewBox="0 0 810 809.999993" height="1080" preserveAspectRatio="xMidYMid meet" version="1.0"><defs><g/></defs><path stroke-linecap="butt" transform="matrix(1.32271, 0, 0, 1.32271, 41.084877, 361.35053)" fill="none" stroke-linejoin="miter" d="M 56.014464 16.343882 C 56.014464 10.534905 51.280458 5.668004 45.338586 5.668004 L 2.685276 5.668004 L 2.685276 59.000145 L 45.338586 59.000145 C 51.280458 59.000145 56.014464 54.133244 56.014464 48.339032 L 56.014464 37.663154 C 56.014464 34.733563 53.607592 32.341457 50.678001 32.341457 C 53.607592 32.341457 56.014464 29.934586 56.014464 27.004995 Z M 45.338586 16.343882 L 45.338586 27.004995 L 13.343435 27.004995 L 13.343435 16.343882 Z M 13.343435 48.339032 L 13.343435 37.663154 L 45.338586 37.663154 L 45.338586 48.339032 Z M 137.93965 16.343882 C 137.93965 10.469934 133.140673 5.668004 127.263771 5.668004 L 84.607509 5.668004 L 84.607509 59.000145 L 95.268621 59.000145 L 95.268621 37.663154 L 101.535347 37.663154 L 121.274648 57.405408 C 122.331899 58.462659 123.666753 59.000145 125.131549 59.000145 L 137.93965 59.000145 L 137.93965 48.339032 L 127.263771 48.339032 L 116.605612 37.663154 L 127.263771 37.663154 C 133.140673 37.663154 137.93965 32.864177 137.93965 27.004995 Z M 127.263771 16.343882 L 127.263771 27.004995 L 95.268621 27.004995 L 95.268621 16.343882 Z M 177.193807 5.668004 C 171.334625 5.668004 166.532694 10.469934 166.532694 16.343882 L 166.532694 59.000145 L 177.193807 59.000145 L 177.193807 37.663154 L 209.188957 37.663154 L 209.188957 59.000145 L 219.864836 59.000145 L 219.864836 16.343882 C 219.864836 10.469934 215.062905 5.668004 209.188957 5.668004 Z M 177.193807 16.343882 L 209.188957 16.343882 L 209.188957 27.004995 L 177.193807 27.004995 Z M 259.116039 59.000145 L 259.116039 23.862772 L 292.643909 57.405408 C 293.650956 58.397689 294.98581 59.000145 296.450605 59.000145 C 299.380196 59.000145 301.790021 56.608039 301.790021 53.660729 L 301.790021 5.668004 L 291.114143 5.668004 L 291.114143 40.805377 L 257.586273 7.28046 C 256.593992 6.27046 255.259138 5.668004 253.794343 5.668004 C 250.849986 5.668004 248.45788 8.077829 248.45788 11.00742 L 248.45788 59.000145 Z M 383.712254 16.343882 C 383.712254 10.534905 378.978247 5.668004 373.036375 5.668004 L 330.383066 5.668004 L 330.383066 59.000145 L 373.036375 59.000145 C 378.978247 59.000145 383.712254 54.133244 383.712254 48.339032 L 383.712254 37.663154 C 383.712254 34.733563 381.305382 32.341457 378.375791 32.341457 C 381.305382 32.341457 383.712254 29.934586 383.712254 27.004995 Z M 373.036375 16.343882 L 373.036375 27.004995 L 341.041225 27.004995 L 341.041225 16.343882 Z M 341.041225 48.339032 L 341.041225 37.663154 L 373.036375 37.663154 L 373.036375 48.339032 Z M 454.961561 59.000145 C 460.90048 59.000145 465.63744 54.133244 465.63744 48.339032 L 465.63744 16.343882 C 465.63744 10.469934 460.835509 5.668004 454.961561 5.668004 L 422.966411 5.668004 C 417.107229 5.668004 412.305298 10.469934 412.305298 16.343882 L 412.305298 48.339032 C 412.305298 54.198214 417.107229 59.000145 422.966411 59.000145 Z M 422.966411 16.343882 L 454.961561 16.343882 L 454.961561 48.339032 L 422.966411 48.339032 Z M 547.562625 5.668004 L 494.230484 5.668004 L 494.230484 16.343882 L 515.564522 16.343882 L 515.564522 59.000145 L 526.225634 59.000145 L 526.225634 16.343882 L 547.562625 16.343882 Z M 547.562625 5.668004 " stroke="#191970" stroke-width="5.000002" stroke-opacity="1" stroke-miterlimit="4"/><g fill="#ffffff" fill-opacity="1"><g transform="translate(41.105544, 439.390433)"><g><path d="M 74.0625 -56.429688 C 74.0625 -64.101562 67.804688 -70.539062 59.957031 -70.539062 L 3.527344 -70.539062 L 3.527344 0 L 59.957031 0 C 67.804688 0 74.0625 -6.4375 74.0625 -14.109375 L 74.0625 -28.214844 C 74.0625 -32.09375 70.890625 -35.269531 67.011719 -35.269531 C 70.890625 -35.269531 74.0625 -38.441406 74.0625 -42.324219 Z M 59.957031 -56.429688 L 59.957031 -42.324219 L 17.632812 -42.324219 L 17.632812 -56.429688 Z M 17.632812 -14.109375 L 17.632812 -28.214844 L 59.957031 -28.214844 L 59.957031 -14.109375 Z M 17.632812 -14.109375 "/></g></g></g><g fill="#ffffff" fill-opacity="1"><g transform="translate(149.467615, 439.390433)"><g><path d="M 74.0625 -56.429688 C 74.0625 -64.1875 67.714844 -70.539062 59.957031 -70.539062 L 3.527344 -70.539062 L 3.527344 0 L 17.632812 0 L 17.632812 -28.214844 L 25.921875 -28.214844 L 52.019531 -2.117188 C 53.433594 -0.707031 55.195312 0 57.136719 0 L 74.0625 0 L 74.0625 -14.109375 L 59.957031 -14.109375 L 45.847656 -28.214844 L 59.957031 -28.214844 C 67.714844 -28.214844 74.0625 -34.5625 74.0625 -42.324219 Z M 59.957031 -56.429688 L 59.957031 -42.324219 L 17.632812 -42.324219 L 17.632812 -56.429688 Z M 59.957031 -56.429688 "/></g></g></g><g fill="#ffffff" fill-opacity="1"><g transform="translate(257.829687, 439.390433)"><g><path d="M 17.632812 -70.539062 C 9.875 -70.539062 3.527344 -64.1875 3.527344 -56.429688 L 3.527344 0 L 17.632812 0 L 17.632812 -28.214844 L 59.957031 -28.214844 L 59.957031 0 L 74.0625 0 L 74.0625 -56.429688 C 74.0625 -64.1875 67.714844 -70.539062 59.957031 -70.539062 Z M 17.632812 -56.429688 L 59.957031 -56.429688 L 59.957031 -42.324219 L 17.632812 -42.324219 Z M 17.632812 -56.429688 "/></g></g></g><g fill="#ffffff" fill-opacity="1"><g transform="translate(366.191758, 439.390433)"><g><path d="M 17.632812 0 L 17.632812 -46.464844 L 61.984375 -2.117188 C 63.308594 -0.792969 65.070312 0 67.011719 0 C 70.890625 0 74.0625 -3.175781 74.0625 -7.054688 L 74.0625 -70.539062 L 59.957031 -70.539062 L 59.957031 -24.070312 L 15.605469 -68.421875 C 14.285156 -69.742188 12.519531 -70.539062 10.582031 -70.539062 C 6.699219 -70.539062 3.527344 -67.363281 3.527344 -63.484375 L 3.527344 0 Z M 17.632812 0 "/></g></g></g><g fill="#ffffff" fill-opacity="1"><g transform="translate(474.553829, 439.390433)"><g><path d="M 74.0625 -56.429688 C 74.0625 -64.101562 67.804688 -70.539062 59.957031 -70.539062 L 3.527344 -70.539062 L 3.527344 0 L 59.957031 0 C 67.804688 0 74.0625 -6.4375 74.0625 -14.109375 L 74.0625 -28.214844 C 74.0625 -32.09375 70.890625 -35.269531 67.011719 -35.269531 C 70.890625 -35.269531 74.0625 -38.441406 74.0625 -42.324219 Z M 59.957031 -56.429688 L 59.957031 -42.324219 L 17.632812 -42.324219 L 17.632812 -56.429688 Z M 17.632812 -14.109375 L 17.632812 -28.214844 L 59.957031 -28.214844 L 59.957031 -14.109375 Z M 17.632812 -14.109375 "/></g></g></g><g fill="#ffffff" fill-opacity="1"><g transform="translate(582.915879, 439.390433)"><g><path d="M 59.957031 0 C 67.804688 0 74.0625 -6.4375 74.0625 -14.109375 L 74.0625 -56.429688 C 74.0625 -64.1875 67.714844 -70.539062 59.957031 -70.539062 L 17.632812 -70.539062 C 9.875 -70.539062 3.527344 -64.1875 3.527344 -56.429688 L 3.527344 -14.109375 C 3.527344 -6.347656 9.875 0 17.632812 0 Z M 17.632812 -56.429688 L 59.957031 -56.429688 L 59.957031 -14.109375 L 17.632812 -14.109375 Z M 17.632812 -56.429688 "/></g></g></g><g fill="#ffffff" fill-opacity="1"><g transform="translate(691.277929, 439.390433)"><g><path d="M 74.0625 -70.539062 L 3.527344 -70.539062 L 3.527344 -56.429688 L 31.742188 -56.429688 L 31.742188 0 L 45.847656 0 L 45.847656 -56.429688 L 74.0625 -56.429688 Z M 74.0625 -70.539062 "/></g></g></g></svg>