<?xml version="1.0" standalone="no"?>
<!DOCTYPE svg PUBLIC "-//W3C//DTD SVG 20010904//EN"
 "http://www.w3.org/TR/2001/REC-SVG-20010904/DTD/svg10.dtd">
<svg version="1.0" xmlns="http://www.w3.org/2000/svg"
 width="500.000000pt" height="500.000000pt" viewBox="0 0 500.000000 500.000000"
 preserveAspectRatio="xMidYMid meet">
<metadata>
Created by potrace 1.14, written by Peter Selinger 2001-2017
</metadata>
<g transform="translate(0.000000,500.000000) scale(0.100000,-0.100000)"
fill="#000000" stroke="none">
<path d="M1590 2870 l0 -1080 105 0 105 0 0 330 0 331 623 -3 c692 -4 657 -1
800 -75 129 -68 244 -225 281 -383 23 -94 21 -268 -3 -362 -52 -201 -182 -350
-364 -417 l-72 -26 -428 -3 -428 -3 3 -107 3 -107 315 -3 c497 -4 625 12 790
100 204 109 338 296 397 553 24 107 22 317 -6 425 -57 227 -198 418 -386 525
-27 16 -52 30 -54 31 -2 2 26 35 61 73 77 83 127 173 164 296 24 79 27 108 28
230 0 115 -3 153 -21 215 -63 219 -185 375 -362 465 -142 71 -111 69 -868 72
l-683 4 0 -1081z m1381 840 c170 -52 294 -196 334 -387 62 -293 -102 -582
-365 -642 -28 -7 -253 -11 -592 -11 l-548 0 0 530 0 530 554 0 c522 0 558 -1
617 -20z"/>
<path d="M4067 2987 c-18 -29 -36 -57 -40 -64 -5 -7 115 -86 338 -224 190
-116 345 -215 345 -218 0 -4 -147 -97 -328 -208 -180 -112 -335 -208 -344
-215 -16 -12 -13 -18 25 -70 23 -32 47 -57 52 -55 6 1 176 106 378 232 l367
230 0 87 0 87 -152 94 c-84 52 -255 158 -381 235 l-227 141 -33 -52z"/>
<path d="M513 2798 l-373 -230 0 -87 0 -86 373 -232 c206 -128 376 -233 379
-233 4 0 25 26 47 58 38 53 40 58 24 70 -10 7 -165 104 -345 215 -180 111
-328 204 -328 207 0 3 153 100 340 214 187 115 342 211 344 215 7 10 -64 121
-77 121 -7 -1 -180 -105 -384 -232z"/>
</g>
</svg>
