<svg xmlns="http://www.w3.org/2000/svg" xmlns:xlink="http://www.w3.org/1999/xlink" width="1080" zoomAndPan="magnify" viewBox="0 0 810 809.999993" height="1080" preserveAspectRatio="xMidYMid meet" version="1.0"><path fill="#74ba9c" d="M 747.804688 113.605469 C 737.117188 73.464844 686.945312 37.398438 632.296875 32.535156 C 506.660156 21.386719 221.019531 23.625 158.863281 33.578125 C 125.210938 38.976562 57.8125 53.765625 48.46875 168.226562 C 41.394531 254.183594 33.605469 461.25 48.445312 581.492188 C 57.554688 655.460938 102.710938 678.394531 130.507812 683.839844 C 165.453125 690.6875 201.445312 690.941406 236.773438 693.285156 C 239.828125 744.011719 221.65625 776.261719 206.410156 788.710938 C 262.6875 780.820312 304.023438 730.039062 314.382812 697.839844 C 389.089844 701.605469 570.699219 701.046875 651.617188 685.445312 C 741.824219 668.058594 752.691406 615.957031 756.765625 577.445312 C 765.417969 496.554688 776.261719 220.078125 747.804688 113.605469 Z M 747.804688 113.605469 " fill-opacity="1" fill-rule="nonzero"/><path fill="#191970" d="M 671.242188 344.0625 C 670.550781 337.40625 668.539062 331.179688 665.210938 325.378906 C 664.277344 323.914062 663.214844 322.546875 662.019531 321.285156 C 660.828125 320.019531 659.527344 318.878906 658.113281 317.863281 C 656.703125 316.847656 655.210938 315.976562 653.636719 315.246094 C 652.058594 314.511719 650.425781 313.9375 648.742188 313.515625 C 647.976562 313.261719 647.0625 313.058594 646.195312 312.828125 C 643.929688 289.464844 640.902344 266.097656 634.511719 243.46875 C 629.421875 225.421875 622.371094 206.5625 607.863281 193.9375 C 592.335938 180.523438 571.972656 176.296875 552.425781 172.734375 C 528.046875 168.371094 503.507812 165.257812 478.8125 163.390625 C 455.75 161.558594 432.613281 160.53125 409.402344 160.3125 C 409.171875 153.390625 408.917969 146.441406 408.664062 139.515625 C 408.410156 132.59375 405.9375 122.769531 400.414062 123.9375 C 395.808594 126.941406 394.078125 142.34375 393.796875 160.3125 C 370.890625 160.464844 347.980469 161.40625 325.074219 163.289062 C 303.695312 164.886719 282.484375 167.730469 261.441406 171.816406 C 240.898438 175.964844 220.101562 182.277344 203.863281 196.152344 C 192.027344 206.332031 184.214844 220.585938 178.894531 235.019531 C 171.054688 256.222656 168.074219 279.179688 166.34375 301.605469 C 166.140625 304.328125 165.988281 307.050781 165.808594 309.800781 C 149.570312 313.695312 141.503906 321.507812 136.539062 332.125 C 133 340.25 130.902344 348.734375 130.25 357.578125 C 128.980469 380.664062 129.589844 406.753906 136.589844 428.183594 C 141.832031 444.195312 153.921875 455.496094 173.292969 459.746094 C 174.582031 481.859375 177.851562 503.671875 183.09375 525.1875 C 186.65625 538.550781 192.179688 550.386719 202.894531 559.578125 C 215.777344 570.597656 232.296875 575.714844 248.710938 579.148438 C 264.074219 582.277344 279.582031 584.195312 295.242188 584.902344 C 295.398438 587.144531 295.871094 589.316406 296.667969 591.417969 C 296.957031 592.074219 297.324219 592.683594 297.761719 593.25 C 298.203125 593.816406 298.707031 594.320312 299.269531 594.765625 C 299.832031 595.210938 300.441406 595.578125 301.09375 595.875 C 301.746094 596.167969 302.425781 596.378906 303.132812 596.507812 C 308.425781 597.554688 326.269531 599.613281 337.394531 596.078125 C 338.933594 595.703125 340.316406 595.015625 341.542969 594.015625 C 342.765625 592.6875 343.613281 591.152344 344.085938 589.40625 C 345.011719 585.214844 345.359375 580.96875 345.128906 576.679688 C 344.773438 573.066406 344.085938 570.316406 341.160156 568.484375 C 338.925781 567.320312 336.550781 566.761719 334.03125 566.804688 C 325.734375 566.296875 317.410156 566.042969 309.113281 566.015625 C 306.726562 565.855469 304.394531 566.136719 302.113281 566.855469 C 301.191406 567.300781 300.335938 567.855469 299.554688 568.519531 C 298.773438 569.183594 298.085938 569.933594 297.5 570.777344 C 296.910156 571.617188 296.4375 572.515625 296.082031 573.476562 C 295.726562 574.441406 295.496094 575.429688 295.394531 576.453125 C 282.757812 575.878906 270.210938 574.503906 257.75 572.328125 C 242.324219 569.578125 225.777344 565.789062 212.773438 556.574219 C 201.472656 548.554688 195.488281 537.738281 191.875 524.707031 C 188.40625 511.425781 185.945312 497.960938 184.492188 484.308594 C 183.550781 476.675781 182.789062 469.039062 182.125 461.25 C 186.597656 461.703125 191.074219 461.859375 195.566406 461.707031 L 209.617188 307.613281 C 198.476562 306.824219 187.351562 307.007812 176.246094 308.171875 C 177.125 288.898438 179.929688 269.910156 184.671875 251.207031 C 188.515625 236.976562 194.523438 222.242188 203.761719 211.269531 C 216.257812 196.378906 235.070312 188.71875 253.574219 184.316406 C 272.597656 179.960938 291.820312 176.878906 311.253906 175.074219 C 338.640625 172.300781 366.230469 170.976562 393.824219 170.824219 C 393.824219 183.78125 394.636719 197.066406 395.375 207.375 L 411.082031 206.359375 C 410.671875 194.480469 410.257812 182.652344 409.832031 170.875 C 425.613281 171.046875 441.378906 171.570312 457.125 172.453125 C 481.535156 173.828125 505.921875 176.042969 530.101562 179.65625 C 541.351562 181.3125 552.550781 183.269531 563.699219 185.636719 C 573.046875 187.363281 581.957031 190.382812 590.425781 194.699219 C 605.34375 202.769531 614.199219 216.589844 619.875 232.21875 C 628.25 255.125 632.09375 279.433594 634.742188 303.617188 C 635.019531 306.160156 635.25 308.933594 635.503906 311.582031 C 625.601562 310.589844 615.71875 310.742188 605.851562 312.039062 L 592.640625 464.355469 C 607.785156 463.84375 622.792969 462.148438 637.667969 459.265625 C 649.65625 456.71875 658.742188 445.085938 663.554688 432.867188 C 668.007812 419.796875 670.765625 406.371094 671.828125 392.601562 C 673.011719 376.40625 672.816406 360.226562 671.242188 344.0625 Z M 671.242188 344.0625 " fill-opacity="1" fill-rule="nonzero"/><path fill="#e9f4ef" d="M 605.75 482.910156 C 599.511719 509.332031 586.582031 522.820312 563.953125 530.355469 C 494.542969 553.519531 323.316406 548.402344 261.746094 536.515625 C 237.820312 531.910156 212.1875 518.699219 204.523438 496.070312 C 188.820312 461.785156 187.292969 364.21875 190.246094 321.382812 C 194.011719 266.910156 201.265625 236.214844 236.519531 221.453125 C 258.945312 212.058594 304.152344 204.5 326.246094 202.769531 C 391.171875 197.675781 456 198.695312 520.734375 205.824219 C 547.308594 208.75 575.996094 213.839844 593.964844 233.617188 C 611.324219 252.734375 614.148438 280.632812 614.988281 306.441406 C 617.050781 369.183594 615.242188 442.234375 605.75 482.910156 Z M 376.464844 134.195312 C 389.828125 134.65625 411.589844 134.730469 426.710938 134.425781 C 431.265625 134.4375 435.785156 134.054688 440.277344 133.28125 C 446.488281 131.777344 448.777344 125.644531 449.363281 119.179688 C 449.847656 114.292969 449.363281 105.945312 444.273438 103.90625 C 432.460938 100.140625 394.257812 98.945312 370.457031 103.90625 C 366.371094 104.703125 362.628906 106.308594 359.230469 108.71875 C 355.007812 111.796875 354.675781 118.671875 355.871094 123.761719 C 357.984375 132.542969 366.867188 133.789062 376.464844 134.121094 Z M 376.464844 134.195312 " fill-opacity="1" fill-rule="nonzero"/><path fill="#191970" d="M 443.332031 420.292969 C 443.128906 421.488281 442.875 422.667969 442.570312 423.839844 C 442.265625 425.007812 441.910156 426.164062 441.503906 427.304688 C 441.097656 428.441406 440.644531 429.5625 440.140625 430.660156 C 439.636719 431.761719 439.085938 432.835938 438.492188 433.890625 C 437.894531 434.941406 437.25 435.964844 436.566406 436.960938 C 435.878906 437.957031 435.148438 438.917969 434.378906 439.851562 C 433.609375 440.785156 432.796875 441.679688 431.949219 442.542969 C 431.097656 443.402344 430.214844 444.226562 429.292969 445.007812 C 428.371094 445.792969 427.417969 446.535156 426.433594 447.238281 C 425.449219 447.9375 424.433594 448.59375 423.390625 449.207031 C 422.347656 449.820312 421.28125 450.382812 420.1875 450.902344 C 419.097656 451.421875 417.984375 451.894531 416.847656 452.316406 C 415.714844 452.738281 414.566406 453.109375 413.402344 453.429688 C 412.234375 453.753906 411.058594 454.023438 409.867188 454.242188 C 408.679688 454.460938 407.480469 454.625 406.277344 454.742188 C 405.074219 454.855469 403.867188 454.917969 402.65625 454.925781 C 401.449219 454.933594 400.242188 454.890625 399.035156 454.792969 C 397.828125 454.699219 396.628906 454.550781 395.4375 454.347656 C 394.246094 454.148438 393.0625 453.894531 391.894531 453.589844 C 390.722656 453.285156 389.566406 452.933594 388.429688 452.527344 C 387.289062 452.121094 386.167969 451.667969 385.070312 451.164062 C 383.96875 450.664062 382.890625 450.113281 381.839844 449.515625 C 380.789062 448.917969 379.765625 448.277344 378.769531 447.59375 C 377.773438 446.90625 376.808594 446.179688 375.875 445.40625 C 374.945312 444.636719 374.046875 443.828125 373.183594 442.980469 C 372.324219 442.132812 371.5 441.246094 370.714844 440.328125 C 369.929688 439.40625 369.1875 438.453125 368.484375 437.46875 C 367.785156 436.484375 367.128906 435.46875 366.515625 434.425781 C 365.902344 433.382812 365.335938 432.316406 364.816406 431.222656 C 364.296875 430.132812 363.824219 429.019531 363.402344 427.886719 C 362.980469 426.753906 362.605469 425.605469 362.285156 424.4375 C 361.960938 423.273438 361.691406 422.09375 361.472656 420.90625 C 360.300781 414.667969 369.820312 412.023438 370.992188 418.359375 C 373.792969 433.175781 387.28125 445.289062 402.65625 445.136719 C 418.03125 444.984375 431.238281 432.613281 433.785156 417.75 C 434.855469 411.386719 444.398438 414.058594 443.332031 420.292969 Z M 315.65625 311.480469 C 310.59375 310.214844 305.503906 310.078125 300.382812 311.074219 C 286.792969 315.246094 281.242188 328.609375 282.058594 342.8125 C 282.140625 345.019531 282.621094 347.132812 283.5 349.160156 C 284.378906 351.183594 285.59375 352.980469 287.148438 354.546875 C 296.285156 364.117188 313.261719 366.816406 323.417969 358.390625 C 324.089844 357.824219 324.734375 357.226562 325.347656 356.597656 C 325.964844 355.972656 326.554688 355.320312 327.109375 354.640625 C 327.667969 353.960938 328.191406 353.257812 328.6875 352.53125 C 329.179688 351.800781 329.640625 351.054688 330.066406 350.285156 C 330.492188 349.515625 330.882812 348.730469 331.238281 347.925781 C 331.59375 347.121094 331.910156 346.304688 332.191406 345.46875 C 332.472656 344.636719 332.714844 343.792969 332.917969 342.9375 C 333.125 342.082031 333.289062 341.222656 333.414062 340.351562 C 333.542969 339.480469 333.628906 338.609375 333.675781 337.730469 C 333.722656 336.851562 333.730469 335.972656 333.699219 335.09375 C 333.667969 334.21875 333.59375 333.34375 333.484375 332.46875 C 333.371094 331.597656 333.222656 330.734375 333.03125 329.875 C 332.84375 329.015625 332.617188 328.167969 332.347656 327.332031 C 332.082031 326.492188 331.777344 325.667969 331.4375 324.859375 C 331.097656 324.046875 330.722656 323.253906 330.308594 322.480469 C 329.894531 321.703125 329.449219 320.945312 328.96875 320.210938 C 327.351562 318 325.398438 316.140625 323.105469 314.636719 C 320.8125 313.132812 318.328125 312.082031 315.65625 311.480469 Z M 518.035156 320.363281 C 516.402344 318.113281 514.421875 316.226562 512.089844 314.703125 C 509.761719 313.183594 507.238281 312.125 504.519531 311.53125 C 499.460938 310.265625 494.371094 310.128906 489.25 311.125 C 475.65625 315.300781 470.109375 328.660156 470.921875 342.863281 C 471.007812 345.070312 471.488281 347.183594 472.367188 349.210938 C 473.246094 351.234375 474.460938 353.03125 476.011719 354.597656 C 485.152344 364.167969 502.128906 366.867188 512.308594 358.441406 C 512.980469 357.878906 513.625 357.28125 514.238281 356.660156 C 514.855469 356.035156 515.445312 355.386719 516.003906 354.710938 C 516.558594 354.035156 517.085938 353.335938 517.582031 352.609375 C 518.078125 351.886719 518.539062 351.140625 518.964844 350.378906 C 519.394531 349.613281 519.785156 348.828125 520.144531 348.027344 C 520.5 347.226562 520.820312 346.414062 521.105469 345.582031 C 521.386719 344.753906 521.632812 343.914062 521.839844 343.0625 C 522.050781 342.210938 522.21875 341.351562 522.347656 340.484375 C 522.480469 339.617188 522.570312 338.746094 522.621094 337.871094 C 522.675781 336.992188 522.6875 336.117188 522.660156 335.242188 C 522.632812 334.367188 522.566406 333.492188 522.460938 332.621094 C 522.355469 331.75 522.210938 330.886719 522.027344 330.03125 C 521.84375 329.171875 521.621094 328.324219 521.359375 327.488281 C 521.101562 326.652344 520.800781 325.828125 520.46875 325.015625 C 520.132812 324.207031 519.761719 323.414062 519.355469 322.636719 C 518.949219 321.859375 518.511719 321.101562 518.035156 320.363281 Z M 518.035156 320.363281 " fill-opacity="1" fill-rule="nonzero"/><path fill="#f4ab9a" d="M 552.449219 427.957031 C 549.433594 430.753906 545.921875 432.621094 541.910156 433.554688 C 536.402344 435.289062 530.757812 436.0625 524.984375 435.871094 C 523.039062 435.929688 521.136719 435.660156 519.285156 435.054688 C 517.429688 434.453125 515.734375 433.554688 514.191406 432.359375 C 513.457031 431.539062 513.035156 430.578125 512.921875 429.484375 C 512.832031 427.941406 512.960938 426.414062 513.304688 424.90625 C 513.648438 423.402344 514.195312 421.972656 514.945312 420.621094 C 515.695312 419.269531 516.621094 418.046875 517.71875 416.957031 C 518.8125 415.867188 520.039062 414.953125 521.398438 414.210938 C 524.136719 412.761719 527.019531 411.683594 530.035156 410.972656 C 533.054688 410.261719 536.113281 409.941406 539.214844 410.011719 C 545.476562 409.78125 553.113281 411.054688 555.429688 416.882812 C 555.726562 417.851562 555.886719 418.84375 555.902344 419.859375 C 555.921875 420.875 555.800781 421.871094 555.535156 422.847656 C 555.273438 423.828125 554.878906 424.753906 554.351562 425.621094 C 553.828125 426.488281 553.195312 427.265625 552.449219 427.957031 Z M 283.40625 414.210938 C 280.683594 412.777344 277.820312 411.703125 274.828125 410.992188 C 271.832031 410.28125 268.792969 409.953125 265.714844 410.011719 C 259.429688 409.78125 251.792969 411.054688 249.5 416.882812 C 249.195312 417.847656 249.027344 418.832031 249 419.84375 C 248.96875 420.851562 249.078125 421.847656 249.328125 422.824219 C 249.578125 423.804688 249.957031 424.730469 250.46875 425.601562 C 250.976562 426.472656 251.597656 427.257812 252.328125 427.957031 C 255.355469 430.75 258.878906 432.617188 262.890625 433.554688 C 268.402344 435.292969 274.042969 436.066406 279.816406 435.871094 C 281.765625 435.929688 283.664062 435.65625 285.519531 435.054688 C 287.371094 434.453125 289.070312 433.554688 290.609375 432.359375 C 291.347656 431.539062 291.761719 430.582031 291.855469 429.484375 C 291.949219 427.941406 291.820312 426.417969 291.480469 424.910156 C 291.136719 423.402344 290.59375 421.972656 289.84375 420.621094 C 289.097656 419.269531 288.175781 418.050781 287.082031 416.960938 C 285.984375 415.871094 284.761719 414.953125 283.40625 414.210938 Z M 283.40625 414.210938 " fill-opacity="1" fill-rule="nonzero"/></svg>