<svg xmlns="http://www.w3.org/2000/svg" xmlns:xlink="http://www.w3.org/1999/xlink" width="1080" zoomAndPan="magnify" viewBox="0 0 810 809.999993" height="1080" preserveAspectRatio="xMidYMid meet" version="1.0"><defs><clipPath id="95d31aa99f"><path d="M 116 610 L 281 610 L 281 783.773438 L 116 783.773438 Z M 116 610 " clip-rule="nonzero"/></clipPath></defs><path fill="#191970" d="M 716.761719 304.078125 L 650.195312 188.585938 C 637.75 166.984375 617.644531 151.539062 593.582031 145.085938 C 569.519531 138.625 544.390625 141.921875 522.789062 154.335938 C 510.339844 161.492188 500.191406 171.144531 492.566406 182.261719 L 434.820312 82.378906 C 434.621094 82.046875 434.453125 81.746094 434.253906 81.414062 C 408.492188 40.90625 354.972656 26.597656 312.40625 48.863281 C 297.261719 56.785156 284.878906 68.398438 276.195312 82.613281 C 247.902344 57.28125 205.566406 50.890625 170.621094 69.164062 C 125.089844 92.996094 107.414062 149.410156 131.246094 194.941406 C 131.410156 195.277344 131.613281 195.609375 131.777344 195.90625 L 142.828125 215.046875 C 129.214844 216.144531 115.933594 220.238281 103.753906 227.261719 C 59.21875 252.953125 43.84375 310.101562 69.539062 354.667969 L 209.328125 596.96875 C 248.433594 664.734375 311.605469 713.226562 387.191406 733.464844 C 412.457031 740.21875 438.050781 743.582031 463.511719 743.582031 C 514.269531 743.582031 564.359375 730.269531 609.492188 704.207031 C 677.253906 665.101562 725.75 601.929688 745.984375 526.34375 C 766.253906 450.757812 755.871094 371.808594 716.761719 304.042969 Z M 694.5625 512.5625 C 677.988281 574.402344 638.3125 626.089844 582.863281 658.078125 C 527.414062 690.097656 462.8125 698.582031 400.972656 682.007812 C 339.132812 665.433594 287.445312 625.757812 255.457031 570.308594 L 115.667969 328.074219 C 104.652344 308.9375 111.242188 284.441406 130.347656 273.425781 C 139.597656 268.097656 150.382812 266.667969 160.734375 269.460938 C 171.050781 272.226562 179.671875 278.882812 185.03125 288.136719 L 258.253906 414.945312 C 265.609375 427.691406 281.886719 432.050781 294.632812 424.695312 C 307.378906 417.339844 311.738281 401.066406 304.382812 388.316406 L 178.207031 169.878906 C 168.324219 150.441406 175.945312 126.542969 195.316406 116.394531 C 213.421875 106.941406 236.121094 112.898438 247.269531 129.941406 L 272.734375 174.074219 C 272.832031 174.273438 272.929688 174.472656 273.03125 174.671875 C 273.496094 175.539062 273.996094 176.371094 274.53125 177.167969 L 360.101562 325.414062 C 365.027344 333.964844 373.980469 338.726562 383.199219 338.726562 C 387.726562 338.726562 392.285156 337.558594 396.480469 335.164062 C 409.226562 327.808594 413.585938 311.535156 406.230469 298.785156 L 319.792969 149.042969 C 315.269531 139.824219 314.402344 129.375 317.5 119.523438 C 320.695312 109.339844 327.648438 101.015625 337.101562 96.058594 C 355.207031 86.570312 377.90625 92.5625 389.058594 109.605469 L 488.507812 281.644531 L 488.507812 281.710938 L 509.675781 318.488281 C 450.597656 367.214844 433.621094 453.085938 473.296875 521.449219 C 480.683594 534.164062 496.960938 538.492188 509.675781 531.132812 C 522.390625 523.746094 526.714844 507.472656 519.359375 494.757812 C 489.96875 444.132812 507.277344 379.03125 557.902344 349.640625 L 558.269531 349.441406 C 570.949219 342.085938 575.308594 325.84375 568.019531 313.128906 L 534.738281 255.183594 C 529.410156 245.933594 527.980469 235.148438 530.777344 224.796875 C 533.539062 214.480469 540.195312 205.859375 549.449219 200.5 C 558.703125 195.175781 569.484375 193.746094 579.835938 196.539062 C 590.152344 199.300781 598.773438 205.957031 604.132812 215.210938 L 670.699219 330.703125 C 702.71875 386.152344 711.203125 450.757812 694.628906 512.597656 Z M 694.5625 512.5625 " fill-opacity="1" fill-rule="nonzero"/><g clip-path="url(#95d31aa99f)"><path fill="#191970" d="M 268.804688 734.792969 C 227.132812 706.039062 191.789062 667.628906 166.625 623.664062 C 159.304688 610.914062 143.058594 606.488281 130.28125 613.777344 C 117.53125 621.066406 113.105469 637.339844 120.394531 650.121094 C 149.484375 700.945312 190.355469 745.378906 238.550781 778.628906 C 243.175781 781.824219 248.433594 783.355469 253.628906 783.355469 C 262.082031 783.355469 270.402344 779.328125 275.5625 771.839844 C 283.914062 759.722656 280.851562 743.148438 268.769531 734.792969 Z M 268.804688 734.792969 " fill-opacity="1" fill-rule="nonzero"/></g><path fill="#191970" d="M 569.550781 87.738281 C 569.550781 87.738281 569.851562 87.738281 570.015625 87.738281 C 622.039062 87.738281 670.367188 115.726562 696.226562 160.894531 C 701.152344 169.480469 710.105469 174.273438 719.359375 174.273438 C 723.851562 174.273438 728.378906 173.140625 732.570312 170.746094 C 745.320312 163.421875 749.746094 147.179688 742.425781 134.402344 C 707.078125 72.726562 641.078125 34.484375 570.015625 34.484375 L 569.484375 34.484375 C 554.773438 34.515625 542.890625 46.464844 542.925781 61.175781 C 542.957031 75.855469 554.875 87.738281 569.550781 87.738281 Z M 569.550781 87.738281 " fill-opacity="1" fill-rule="nonzero"/></svg>